<?xml version="1.0" encoding="UTF-8"?>
<svg xmlns="http://www.w3.org/2000/svg" xmlns:xlink="http://www.w3.org/1999/xlink" width="17pt" height="17pt" viewBox="0 0 17 17" version="1.1">
<g id="surface1">
<path style=" stroke:none;fill-rule:nonzero;fill:rgb(0%,0%,0%);fill-opacity:1;" d="M 6.230469 12.257812 C 5.089844 12.257812 4.160156 13.1875 4.160156 14.328125 C 4.160156 15.46875 5.089844 16.398438 6.230469 16.398438 C 7.375 16.398438 8.304688 15.46875 8.304688 14.328125 C 8.304688 13.1875 7.375 12.257812 6.230469 12.257812 Z M 6.230469 15.15625 C 5.777344 15.15625 5.40625 14.785156 5.40625 14.328125 C 5.40625 13.871094 5.777344 13.496094 6.230469 13.496094 C 6.6875 13.496094 7.0625 13.871094 7.0625 14.328125 C 7.0625 14.785156 6.6875 15.15625 6.230469 15.15625 Z M 6.230469 15.15625 "/>
<path style=" stroke:none;fill-rule:nonzero;fill:rgb(0%,0%,0%);fill-opacity:1;" d="M 12.359375 12.257812 C 11.21875 12.257812 10.289062 13.1875 10.289062 14.328125 C 10.289062 15.46875 11.21875 16.398438 12.359375 16.398438 C 13.5 16.398438 14.429688 15.46875 14.429688 14.328125 C 14.429688 13.1875 13.5 12.257812 12.359375 12.257812 Z M 12.359375 15.15625 C 11.902344 15.15625 11.53125 14.785156 11.53125 14.328125 C 11.53125 13.871094 11.902344 13.496094 12.359375 13.496094 C 12.816406 13.496094 13.1875 13.871094 13.1875 14.328125 C 13.1875 14.785156 12.816406 15.15625 12.359375 15.15625 Z M 12.359375 15.15625 "/>
<path style=" stroke:none;fill-rule:nonzero;fill:rgb(0%,0%,0%);fill-opacity:1;" d="M 15.953125 4.042969 C 15.832031 3.894531 15.65625 3.808594 15.464844 3.808594 L 4.59375 3.808594 L 4.027344 0.953125 C 3.976562 0.707031 3.78125 0.511719 3.527344 0.464844 L 1.046875 0.0117188 C 0.707031 -0.0546875 0.382812 0.171875 0.320312 0.511719 C 0.257812 0.847656 0.484375 1.171875 0.820312 1.230469 L 2.886719 1.613281 L 4.710938 10.828125 C 4.769531 11.117188 5.023438 11.328125 5.320312 11.328125 L 14.015625 11.328125 C 14.308594 11.328125 14.558594 11.125 14.621094 10.84375 L 16.070312 4.570312 C 16.113281 4.382812 16.066406 4.191406 15.953125 4.042969 Z M 13.523438 10.082031 L 5.832031 10.082031 L 4.835938 5.050781 L 14.6875 5.050781 Z M 13.523438 10.082031 "/>
</g>
</svg>
