<?xml version="1.0" encoding="UTF-8"?>
<svg xmlns="http://www.w3.org/2000/svg" xmlns:xlink="http://www.w3.org/1999/xlink" width="22pt" height="22pt" viewBox="0 0 22 22" version="1.1">
<g id="surface1">
<path style=" stroke:none;fill-rule:nonzero;fill:rgb(0%,0%,0%);fill-opacity:1;" d="M 14.425781 15.613281 L 14.425781 17.207031 C 14.425781 18.964844 12.992188 20.40625 11.238281 20.40625 L 3.234375 20.40625 C 1.476562 20.40625 0.0390625 18.964844 0.0390625 17.207031 L 0.0390625 3.191406 C 0.0390625 1.433594 1.476562 0 3.234375 0 L 11.238281 0 C 12.992188 0 14.425781 1.433594 14.425781 3.191406 L 14.425781 4.785156 C 14.425781 5.21875 14.058594 5.585938 13.628906 5.585938 C 13.1875 5.585938 12.832031 5.21875 12.832031 4.785156 L 12.832031 3.191406 C 12.832031 2.308594 12.113281 1.597656 11.238281 1.597656 L 3.234375 1.597656 C 2.351562 1.597656 1.632812 2.308594 1.632812 3.191406 L 1.632812 17.207031 C 1.632812 18.089844 2.351562 18.8125 3.234375 18.8125 L 11.238281 18.8125 C 12.113281 18.8125 12.832031 18.089844 12.832031 17.207031 L 12.832031 15.613281 C 12.832031 15.171875 13.1875 14.816406 13.628906 14.816406 C 14.058594 14.816406 14.425781 15.171875 14.425781 15.613281 Z M 19.847656 8.832031 L 18.066406 7.042969 C 17.75 6.734375 17.253906 6.734375 16.945312 7.042969 C 16.628906 7.355469 16.628906 7.867188 16.945312 8.183594 L 18.210938 9.4375 L 8.640625 9.4375 C 8.207031 9.4375 7.84375 9.804688 7.84375 10.238281 C 7.84375 10.683594 8.207031 11.035156 8.640625 11.035156 L 18.210938 11.035156 L 16.945312 12.304688 C 16.628906 12.617188 16.628906 13.113281 16.945312 13.425781 C 17.101562 13.59375 17.308594 13.667969 17.511719 13.667969 C 17.710938 13.667969 17.917969 13.59375 18.066406 13.425781 L 19.847656 11.644531 C 20.632812 10.871094 20.632812 9.617188 19.847656 8.832031 Z M 19.847656 8.832031 "/>
</g>
</svg>
