<?xml version="1.0" encoding="UTF-8"?>
<svg xmlns="http://www.w3.org/2000/svg" xmlns:xlink="http://www.w3.org/1999/xlink" width="22pt" height="22pt" viewBox="0 0 22 22" version="1.1">
<g id="surface1">
<path style=" stroke:none;fill-rule:nonzero;fill:rgb(0%,0%,0%);fill-opacity:1;" d="M 21.441406 9.523438 C 21.441406 9.523438 21.441406 9.519531 21.441406 9.519531 L 12.46875 0.550781 C 12.085938 0.167969 11.578125 -0.0429688 11.039062 -0.0429688 C 10.496094 -0.0429688 9.988281 0.167969 9.605469 0.550781 L 0.640625 9.515625 C 0.636719 9.519531 0.632812 9.523438 0.628906 9.523438 C -0.15625 10.316406 -0.152344 11.597656 0.632812 12.382812 C 0.996094 12.746094 1.46875 12.953125 1.976562 12.972656 C 2 12.976562 2.019531 12.976562 2.039062 12.976562 L 2.398438 12.976562 L 2.398438 19.578125 C 2.398438 20.886719 3.460938 21.949219 4.765625 21.949219 L 8.277344 21.949219 C 8.632812 21.949219 8.921875 21.660156 8.921875 21.304688 L 8.921875 16.128906 C 8.921875 15.53125 9.40625 15.046875 10.003906 15.046875 L 12.074219 15.046875 C 12.667969 15.046875 13.152344 15.53125 13.152344 16.128906 L 13.152344 21.304688 C 13.152344 21.660156 13.441406 21.949219 13.796875 21.949219 L 17.308594 21.949219 C 18.613281 21.949219 19.675781 20.886719 19.675781 19.578125 L 19.675781 12.976562 L 20.007812 12.976562 C 20.550781 12.976562 21.058594 12.765625 21.441406 12.382812 C 22.230469 11.59375 22.230469 10.3125 21.441406 9.523438 Z M 20.527344 11.472656 C 20.390625 11.613281 20.207031 11.6875 20.007812 11.6875 L 19.03125 11.6875 C 18.675781 11.6875 18.386719 11.976562 18.386719 12.332031 L 18.386719 19.578125 C 18.386719 20.175781 17.902344 20.660156 17.308594 20.660156 L 14.441406 20.660156 L 14.441406 16.128906 C 14.441406 14.820312 13.378906 13.757812 12.074219 13.757812 L 10.003906 13.757812 C 8.695312 13.757812 7.632812 14.820312 7.632812 16.128906 L 7.632812 20.660156 L 4.765625 20.660156 C 4.171875 20.660156 3.6875 20.175781 3.6875 19.578125 L 3.6875 12.332031 C 3.6875 11.976562 3.398438 11.6875 3.042969 11.6875 L 2.082031 11.6875 C 2.074219 11.6875 2.0625 11.6875 2.054688 11.6875 C 1.859375 11.683594 1.679688 11.609375 1.546875 11.472656 C 1.257812 11.1875 1.257812 10.71875 1.546875 10.433594 L 1.546875 10.429688 L 10.515625 1.460938 C 10.65625 1.320312 10.839844 1.246094 11.039062 1.246094 C 11.234375 1.246094 11.417969 1.320312 11.558594 1.460938 L 20.527344 10.429688 C 20.527344 10.429688 20.527344 10.433594 20.53125 10.433594 C 20.816406 10.722656 20.816406 11.1875 20.527344 11.472656 Z M 20.527344 11.472656 "/>
</g>
</svg>
