<svg width="22" height="22" xmlns="http://www.w3.org/2000/svg">

 <g>
  <title>background</title>
  <rect fill="none" id="canvas_background" height="24" width="24" y="-1" x="-1"/>
 </g>
 <g>
  <title>Layer 1</title>
  <g stroke="null" id="svg_1">
   <g stroke="null" id="svg_2">
    <path stroke="null" id="svg_3" d="m17.31998,13.5109c-0.44745,-0.4621 -0.98717,-0.70917 -1.55917,-0.70917c-0.56739,0 -1.11172,0.24249 -1.57762,0.70459l-1.45768,1.44121c-0.11994,-0.06405 -0.23987,-0.12353 -0.3552,-0.18301c-0.16607,-0.08235 -0.3229,-0.16013 -0.45668,-0.24249c-1.36543,-0.86015 -2.6063,-1.98109 -3.79644,-3.43145c-0.57662,-0.72289 -0.9641,-1.3314 -1.24549,-1.94906c0.37826,-0.34314 0.72884,-0.70002 1.0702,-1.04316c0.12916,-0.12811 0.25832,-0.26079 0.38749,-0.3889c0.96871,-0.9608 0.96871,-2.20528 0,-3.16608l-1.25933,-1.24905c-0.143,-0.14183 -0.29061,-0.28824 -0.429,-0.43465c-0.27678,-0.28367 -0.56739,-0.57648 -0.86723,-0.851c-0.44745,-0.43923 -0.98255,-0.67256 -1.54533,-0.67256s-1.1071,0.23334 -1.56839,0.67256c-0.00461,0.00458 -0.00461,0.00458 -0.00923,0.00915l-1.56839,1.56931c-0.59045,0.58563 -0.9272,1.29937 -1.001,2.1275c-0.11071,1.33598 0.286,2.58045 0.59045,3.39484c0.74729,1.99939 1.86362,3.85237 3.52889,5.83803c2.02046,2.39286 4.45147,4.28244 7.22845,5.61385c1.06097,0.4987 2.47714,1.08891 4.05937,1.18957c0.09687,0.00458 0.19836,0.00915 0.29061,0.00915c1.06559,0 1.96049,-0.37975 2.66166,-1.13466c0.00461,-0.00915 0.01384,-0.01373 0.01845,-0.02288c0.23987,-0.28824 0.51665,-0.54903 0.80726,-0.82812c0.19836,-0.18759 0.40132,-0.38432 0.59968,-0.59021c0.45668,-0.47125 0.69655,-1.02028 0.69655,-1.58304c0,-0.56733 -0.24449,-1.11179 -0.71039,-1.56931l-2.5325,-2.52097zm1.65143,4.81775c-0.00461,0 -0.00461,0.00458 0,0c-0.1799,0.19216 -0.36442,0.36602 -0.56278,0.55818c-0.29984,0.28367 -0.60429,0.58106 -0.89029,0.91505c-0.46591,0.49413 -1.01484,0.72747 -1.73446,0.72747c-0.06919,0 -0.143,0 -0.21219,-0.00458c-1.37004,-0.08693 -2.64321,-0.61766 -3.59808,-1.07061c-2.61092,-1.25362 -4.90354,-3.0334 -6.80868,-5.289c-1.57301,-1.88043 -2.62475,-3.61903 -3.32131,-5.48574c-0.429,-1.13924 -0.58584,-2.02684 -0.51665,-2.86411c0.04613,-0.53531 0.25371,-0.97911 0.63658,-1.35885l1.57301,-1.56016c0.22603,-0.21046 0.46591,-0.32484 0.70116,-0.32484c0.29061,0 0.52587,0.17386 0.67349,0.32027c0.00461,0.00458 0.00923,0.00915 0.01384,0.01373c0.28139,0.26079 0.54894,0.53073 0.83033,0.81897c0.143,0.14641 0.29061,0.29282 0.43823,0.4438l1.25933,1.24905c0.48897,0.48498 0.48897,0.93335 0,1.41833c-0.13377,0.13268 -0.26294,0.26537 -0.39671,0.39347c-0.38749,0.39347 -0.75652,0.75949 -1.15784,1.11636c-0.00923,0.00915 -0.01845,0.01373 -0.02306,0.02288c-0.39671,0.39347 -0.3229,0.77779 -0.23987,1.03858c0.00461,0.01373 0.00923,0.02745 0.01384,0.04118c0.32752,0.78694 0.78881,1.52814 1.48998,2.41116l0.00461,0.00458c1.27317,1.55559 2.61553,2.76803 4.09628,3.69681c0.18913,0.11896 0.38287,0.21504 0.56739,0.30654c0.16607,0.08235 0.3229,0.16013 0.45668,0.24249c0.01845,0.00915 0.0369,0.02288 0.05536,0.03203c0.15684,0.07778 0.30445,0.11438 0.45668,0.11438c0.38287,0 0.62274,-0.23791 0.70116,-0.31569l1.57762,-1.56474c0.15684,-0.15556 0.40594,-0.34314 0.69655,-0.34314c0.286,0 0.52126,0.17844 0.66426,0.33399c0.00461,0.00458 0.00461,0.00458 0.00923,0.00915l2.54172,2.52097c0.47513,0.46668 0.47513,0.94708 0.00461,1.43206z"/>
    <path stroke="null" id="svg_4" d="m11.85828,5.23883c1.20859,0.20131 2.30646,0.76864 3.18292,1.63794s1.44385,1.95821 1.65143,3.15693c0.05074,0.30197 0.31368,0.51243 0.61352,0.51243c0.0369,0 0.06919,-0.00458 0.1061,-0.00915c0.34136,-0.0549 0.56739,-0.37517 0.51203,-0.71374c-0.2491,-1.45036 -0.94104,-2.77261 -1.9974,-3.82034s-2.3895,-1.73402 -3.85179,-1.98109c-0.34136,-0.0549 -0.65965,0.16928 -0.71962,0.50328s0.16145,0.65884 0.50281,0.71374z"/>
    <path stroke="null" id="svg_5" d="m21.87755,9.64481c-0.41055,-2.38829 -1.54533,-4.56154 -3.28902,-6.29098s-3.93483,-2.85496 -6.34277,-3.26216c-0.33674,-0.05948 -0.65504,0.16928 -0.715,0.50328c-0.05536,0.33857 0.17068,0.65426 0.51203,0.71374c2.14962,0.36145 4.11012,1.37258 5.66929,2.91444c1.55917,1.54644 2.57401,3.49092 2.93843,5.623c0.05074,0.30197 0.31368,0.51243 0.61352,0.51243c0.0369,0 0.06919,-0.00458 0.1061,-0.00915c0.33674,-0.05033 0.56739,-0.3706 0.50742,-0.70459z"/>
   </g>
  </g>
  <g id="svg_6"/>
  <g id="svg_7"/>
  <g id="svg_8"/>
  <g id="svg_9"/>
  <g id="svg_10"/>
  <g id="svg_11"/>
  <g id="svg_12"/>
  <g id="svg_13"/>
  <g id="svg_14"/>
  <g id="svg_15"/>
  <g id="svg_16"/>
  <g id="svg_17"/>
  <g id="svg_18"/>
  <g id="svg_19"/>
  <g id="svg_20"/>
 </g>
</svg>