<?xml version="1.0" encoding="UTF-8"?>
<svg xmlns="http://www.w3.org/2000/svg" xmlns:xlink="http://www.w3.org/1999/xlink" width="22pt" height="22pt" viewBox="0 0 22 22" version="1.1">
<g id="surface1">
<path style=" stroke:none;fill-rule:nonzero;fill:rgb(0%,0%,0%);fill-opacity:1;" d="M 17.386719 13.628906 C 16.9375 13.160156 16.394531 12.910156 15.816406 12.910156 C 15.246094 12.910156 14.699219 13.15625 14.230469 13.625 L 12.761719 15.085938 C 12.640625 15.019531 12.519531 14.960938 12.40625 14.902344 C 12.238281 14.816406 12.078125 14.738281 11.945312 14.65625 C 10.570312 13.78125 9.320312 12.644531 8.125 11.171875 C 7.542969 10.4375 7.152344 9.820312 6.871094 9.195312 C 7.25 8.84375 7.605469 8.484375 7.945312 8.136719 C 8.078125 8.003906 8.207031 7.871094 8.335938 7.742188 C 9.3125 6.765625 9.3125 5.503906 8.335938 4.527344 L 7.070312 3.261719 C 6.925781 3.117188 6.777344 2.96875 6.636719 2.820312 C 6.359375 2.53125 6.066406 2.234375 5.765625 1.957031 C 5.316406 1.507812 4.777344 1.273438 4.210938 1.273438 C 3.644531 1.273438 3.09375 1.507812 2.628906 1.957031 C 2.625 1.960938 2.625 1.960938 2.621094 1.964844 L 1.042969 3.558594 C 0.449219 4.152344 0.109375 4.875 0.0351562 5.714844 C -0.078125 7.070312 0.324219 8.335938 0.628906 9.160156 C 1.382812 11.191406 2.503906 13.070312 4.179688 15.085938 C 6.214844 17.515625 8.664062 19.433594 11.457031 20.785156 C 12.527344 21.289062 13.949219 21.886719 15.542969 21.992188 C 15.640625 21.996094 15.742188 22 15.835938 22 C 16.910156 22 17.808594 21.613281 18.515625 20.847656 C 18.519531 20.839844 18.527344 20.835938 18.535156 20.824219 C 18.773438 20.53125 19.054688 20.269531 19.347656 19.984375 C 19.546875 19.792969 19.75 19.59375 19.949219 19.386719 C 20.410156 18.90625 20.652344 18.351562 20.652344 17.777344 C 20.652344 17.203125 20.40625 16.652344 19.9375 16.1875 Z M 19.050781 18.515625 C 19.042969 18.515625 19.042969 18.523438 19.050781 18.515625 C 18.867188 18.710938 18.683594 18.890625 18.484375 19.085938 C 18.179688 19.371094 17.875 19.671875 17.585938 20.011719 C 17.117188 20.515625 16.566406 20.75 15.839844 20.75 C 15.769531 20.75 15.695312 20.75 15.628906 20.746094 C 14.25 20.65625 12.964844 20.121094 12.003906 19.660156 C 9.378906 18.386719 7.070312 16.582031 5.152344 14.292969 C 3.570312 12.382812 2.511719 10.621094 1.808594 8.726562 C 1.378906 7.570312 1.21875 6.667969 1.289062 5.816406 C 1.335938 5.273438 1.542969 4.824219 1.929688 4.4375 L 3.511719 2.855469 C 3.742188 2.640625 3.980469 2.527344 4.21875 2.527344 C 4.511719 2.527344 4.746094 2.703125 4.898438 2.851562 C 4.902344 2.855469 4.90625 2.859375 4.910156 2.863281 C 5.195312 3.128906 5.464844 3.402344 5.746094 3.695312 C 5.890625 3.84375 6.039062 3.992188 6.1875 4.148438 L 7.453125 5.414062 C 7.945312 5.90625 7.945312 6.363281 7.453125 6.855469 C 7.320312 6.988281 7.191406 7.121094 7.054688 7.253906 C 6.664062 7.652344 6.292969 8.023438 5.890625 8.386719 C 5.882812 8.394531 5.871094 8.398438 5.867188 8.410156 C 5.46875 8.808594 5.542969 9.199219 5.625 9.464844 C 5.628906 9.476562 5.636719 9.492188 5.640625 9.503906 C 5.96875 10.304688 6.433594 11.054688 7.140625 11.953125 L 7.144531 11.957031 C 8.425781 13.535156 9.777344 14.765625 11.265625 15.707031 C 11.457031 15.828125 11.652344 15.925781 11.839844 16.019531 C 12.003906 16.101562 12.164062 16.183594 12.296875 16.265625 C 12.316406 16.273438 12.335938 16.289062 12.355469 16.296875 C 12.511719 16.378906 12.660156 16.414062 12.8125 16.414062 C 13.199219 16.414062 13.441406 16.171875 13.519531 16.09375 L 15.105469 14.503906 C 15.265625 14.347656 15.515625 14.15625 15.808594 14.15625 C 16.097656 14.15625 16.332031 14.339844 16.476562 14.496094 C 16.480469 14.5 16.480469 14.5 16.484375 14.503906 L 19.042969 17.0625 C 19.523438 17.539062 19.523438 18.023438 19.050781 18.515625 Z M 19.050781 18.515625 "/>
<path style=" stroke:none;fill-rule:nonzero;fill:rgb(0%,0%,0%);fill-opacity:1;" d="M 11.890625 5.234375 C 13.105469 5.4375 14.210938 6.011719 15.09375 6.894531 C 15.976562 7.777344 16.546875 8.882812 16.753906 10.097656 C 16.804688 10.40625 17.070312 10.621094 17.371094 10.621094 C 17.410156 10.621094 17.441406 10.613281 17.480469 10.609375 C 17.824219 10.554688 18.050781 10.230469 17.996094 9.886719 C 17.746094 8.414062 17.046875 7.070312 15.984375 6.007812 C 14.921875 4.945312 13.578125 4.25 12.109375 4 C 11.765625 3.941406 11.445312 4.167969 11.382812 4.507812 C 11.324219 4.847656 11.546875 5.175781 11.890625 5.234375 Z M 11.890625 5.234375 "/>
<path style=" stroke:none;fill-rule:nonzero;fill:rgb(0%,0%,0%);fill-opacity:1;" d="M 21.972656 9.703125 C 21.5625 7.28125 20.417969 5.074219 18.664062 3.320312 C 16.910156 1.566406 14.703125 0.421875 12.28125 0.0078125 C 11.941406 -0.0507812 11.621094 0.179688 11.558594 0.519531 C 11.503906 0.863281 11.730469 1.183594 12.074219 1.246094 C 14.238281 1.613281 16.210938 2.636719 17.78125 4.203125 C 19.351562 5.773438 20.371094 7.746094 20.738281 9.910156 C 20.789062 10.214844 21.054688 10.429688 21.355469 10.429688 C 21.394531 10.429688 21.425781 10.425781 21.464844 10.417969 C 21.800781 10.367188 22.035156 10.042969 21.972656 9.703125 Z M 21.972656 9.703125 "/>
</g>
</svg>
