<?xml version="1.0" encoding="UTF-8"?>
<svg xmlns="http://www.w3.org/2000/svg" xmlns:xlink="http://www.w3.org/1999/xlink" width="22pt" height="22pt" viewBox="0 0 22 22" version="1.1">
<g id="surface1">
<path style=" stroke:none;fill-rule:nonzero;fill:rgb(0%,0%,0%);fill-opacity:1;" d="M 18.777344 14.222656 C 17.582031 13.023438 16.152344 12.136719 14.597656 11.601562 C 16.265625 10.453125 17.359375 8.53125 17.359375 6.359375 C 17.359375 2.851562 14.507812 0 11 0 C 7.492188 0 4.640625 2.851562 4.640625 6.359375 C 4.640625 8.53125 5.734375 10.453125 7.402344 11.601562 C 5.847656 12.136719 4.421875 13.023438 3.222656 14.222656 C 1.144531 16.300781 0 19.0625 0 22 L 1.71875 22 C 1.71875 16.882812 5.882812 12.71875 11 12.71875 C 16.117188 12.71875 20.28125 16.882812 20.28125 22 L 22 22 C 22 19.0625 20.855469 16.300781 18.777344 14.222656 Z M 11 11 C 8.441406 11 6.359375 8.917969 6.359375 6.359375 C 6.359375 3.800781 8.441406 1.71875 11 1.71875 C 13.558594 1.71875 15.640625 3.800781 15.640625 6.359375 C 15.640625 8.917969 13.558594 11 11 11 Z M 11 11 "/>
</g>
</svg>
